<mxfile host="app.diagrams.net" modified="2023-07-20T14:11:07.382Z" agent="Mozilla/5.0 (Windows NT 10.0; Win64; x64) AppleWebKit/537.36 (KHTML, like Gecko) Chrome/114.0.0.0 Safari/537.36" etag="nFBsHFvac--AYRFxoSNI" version="21.6.3" type="google">
  <diagram name="Pagina-1" id="uvzVeQ2NYM2cvVNkcfYF">
    <mxGraphModel grid="1" page="1" gridSize="10" guides="1" tooltips="1" connect="1" arrows="1" fold="1" pageScale="1" pageWidth="827" pageHeight="1169" math="0" shadow="0">
      <root>
        <mxCell id="0" />
        <mxCell id="1" parent="0" />
        <mxCell id="MxEG5UnicQZ02ljtJPla-24" style="edgeStyle=orthogonalEdgeStyle;rounded=0;orthogonalLoop=1;jettySize=auto;html=1;exitX=0;exitY=0.5;exitDx=0;exitDy=0;" edge="1" parent="1" source="MxEG5UnicQZ02ljtJPla-18">
          <mxGeometry relative="1" as="geometry">
            <mxPoint x="900" y="235" as="targetPoint" />
            <Array as="points">
              <mxPoint x="910" y="155" />
              <mxPoint x="910" y="235" />
            </Array>
          </mxGeometry>
        </mxCell>
        <mxCell id="MxEG5UnicQZ02ljtJPla-18" value="Vino" style="whiteSpace=wrap;html=1;align=center;" vertex="1" parent="1">
          <mxGeometry x="920" y="135" width="100" height="40" as="geometry" />
        </mxCell>
        <mxCell id="MxEG5UnicQZ02ljtJPla-25" style="edgeStyle=orthogonalEdgeStyle;rounded=0;orthogonalLoop=1;jettySize=auto;html=1;exitX=0;exitY=0.5;exitDx=0;exitDy=0;" edge="1" parent="1" source="MxEG5UnicQZ02ljtJPla-19">
          <mxGeometry relative="1" as="geometry">
            <mxPoint x="900" y="235" as="targetPoint" />
            <Array as="points">
              <mxPoint x="910" y="315" />
              <mxPoint x="910" y="235" />
            </Array>
          </mxGeometry>
        </mxCell>
        <mxCell id="MxEG5UnicQZ02ljtJPla-19" value="Distillati" style="whiteSpace=wrap;html=1;align=center;" vertex="1" parent="1">
          <mxGeometry x="920" y="295" width="100" height="40" as="geometry" />
        </mxCell>
        <mxCell id="kKgeo0slFkC3Tw3-10c0-15" style="edgeStyle=none;rounded=0;orthogonalLoop=1;jettySize=auto;html=1;exitX=0.75;exitY=1;exitDx=0;exitDy=0;endArrow=oval;endFill=0;endSize=6;" edge="1" parent="1" source="MxEG5UnicQZ02ljtJPla-21">
          <mxGeometry relative="1" as="geometry">
            <mxPoint x="354" y="280" as="targetPoint" />
          </mxGeometry>
        </mxCell>
        <mxCell id="kKgeo0slFkC3Tw3-10c0-17" style="edgeStyle=none;rounded=0;orthogonalLoop=1;jettySize=auto;html=1;exitX=0.25;exitY=1;exitDx=0;exitDy=0;endArrow=oval;endFill=0;endSize=6;" edge="1" parent="1" source="MxEG5UnicQZ02ljtJPla-21">
          <mxGeometry relative="1" as="geometry">
            <mxPoint x="304" y="280" as="targetPoint" />
          </mxGeometry>
        </mxCell>
        <mxCell id="kKgeo0slFkC3Tw3-10c0-20" style="edgeStyle=none;rounded=0;orthogonalLoop=1;jettySize=auto;html=1;exitX=0.75;exitY=0;exitDx=0;exitDy=0;endArrow=oval;endFill=0;endSize=6;" edge="1" parent="1" source="MxEG5UnicQZ02ljtJPla-21">
          <mxGeometry relative="1" as="geometry">
            <mxPoint x="354" y="180" as="targetPoint" />
          </mxGeometry>
        </mxCell>
        <mxCell id="kKgeo0slFkC3Tw3-10c0-23" style="edgeStyle=none;rounded=0;orthogonalLoop=1;jettySize=auto;html=1;exitX=0.5;exitY=0;exitDx=0;exitDy=0;endArrow=oval;endFill=0;endSize=6;" edge="1" parent="1" source="mo-22U2Wwn1jeFS1FAg1-8">
          <mxGeometry relative="1" as="geometry">
            <mxPoint x="550" y="160" as="targetPoint" />
          </mxGeometry>
        </mxCell>
        <mxCell id="kKgeo0slFkC3Tw3-10c0-25" style="edgeStyle=none;rounded=0;orthogonalLoop=1;jettySize=auto;html=1;exitX=0.25;exitY=0;exitDx=0;exitDy=0;endArrow=oval;endFill=1;endSize=6;" edge="1" parent="1" source="MxEG5UnicQZ02ljtJPla-21">
          <mxGeometry relative="1" as="geometry">
            <mxPoint x="304" y="180" as="targetPoint" />
          </mxGeometry>
        </mxCell>
        <mxCell id="MxEG5UnicQZ02ljtJPla-21" value="Ordine" style="whiteSpace=wrap;html=1;align=center;" vertex="1" parent="1">
          <mxGeometry x="279" y="210" width="100" height="40" as="geometry" />
        </mxCell>
        <mxCell id="MxEG5UnicQZ02ljtJPla-38" style="edgeStyle=orthogonalEdgeStyle;rounded=0;orthogonalLoop=1;jettySize=auto;html=1;exitX=0.25;exitY=0;exitDx=0;exitDy=0;endArrow=oval;endFill=1;" edge="1" parent="1" source="MxEG5UnicQZ02ljtJPla-22">
          <mxGeometry relative="1" as="geometry">
            <mxPoint x="770" y="167.5" as="targetPoint" />
          </mxGeometry>
        </mxCell>
        <mxCell id="MxEG5UnicQZ02ljtJPla-40" style="edgeStyle=orthogonalEdgeStyle;rounded=0;orthogonalLoop=1;jettySize=auto;html=1;exitX=1;exitY=0;exitDx=0;exitDy=0;endArrow=oval;endFill=0;" edge="1" parent="1" source="MxEG5UnicQZ02ljtJPla-22">
          <mxGeometry relative="1" as="geometry">
            <mxPoint x="845" y="167.5" as="targetPoint" />
          </mxGeometry>
        </mxCell>
        <mxCell id="MxEG5UnicQZ02ljtJPla-42" style="edgeStyle=orthogonalEdgeStyle;rounded=0;orthogonalLoop=1;jettySize=auto;html=1;exitX=1;exitY=1;exitDx=0;exitDy=0;endArrow=oval;endFill=0;" edge="1" parent="1" source="MxEG5UnicQZ02ljtJPla-22">
          <mxGeometry relative="1" as="geometry">
            <mxPoint x="845" y="287.5" as="targetPoint" />
          </mxGeometry>
        </mxCell>
        <mxCell id="MxEG5UnicQZ02ljtJPla-52" style="rounded=0;orthogonalLoop=1;jettySize=auto;html=1;exitX=0;exitY=0;exitDx=0;exitDy=0;endArrow=oval;endFill=0;" edge="1" parent="1" source="MxEG5UnicQZ02ljtJPla-22">
          <mxGeometry relative="1" as="geometry">
            <mxPoint x="715" y="167.5" as="targetPoint" />
          </mxGeometry>
        </mxCell>
        <mxCell id="f11nRXns6FTgNTCt6T9g-1" style="rounded=0;orthogonalLoop=1;jettySize=auto;html=1;exitX=0;exitY=1;exitDx=0;exitDy=0;endArrow=oval;endFill=0;" edge="1" parent="1" source="MxEG5UnicQZ02ljtJPla-22">
          <mxGeometry relative="1" as="geometry">
            <mxPoint x="700" y="280" as="targetPoint" />
          </mxGeometry>
        </mxCell>
        <mxCell id="96hjUAJHOVGi4jxrKTjh-1" style="edgeStyle=orthogonalEdgeStyle;rounded=0;orthogonalLoop=1;jettySize=auto;html=1;exitX=0.25;exitY=1;exitDx=0;exitDy=0;endArrow=oval;endFill=0;" edge="1" parent="1" source="MxEG5UnicQZ02ljtJPla-22">
          <mxGeometry relative="1" as="geometry">
            <mxPoint x="770" y="300" as="targetPoint" />
          </mxGeometry>
        </mxCell>
        <mxCell id="MxEG5UnicQZ02ljtJPla-22" value="Alcolici" style="whiteSpace=wrap;html=1;align=center;" vertex="1" parent="1">
          <mxGeometry x="745" y="210" width="100" height="40" as="geometry" />
        </mxCell>
        <mxCell id="MxEG5UnicQZ02ljtJPla-23" value="" style="shape=flexArrow;endArrow=classic;html=1;rounded=0;width=26;endSize=7.67;fillColor=#000000;entryX=1;entryY=0.5;entryDx=0;entryDy=0;" edge="1" parent="1" target="MxEG5UnicQZ02ljtJPla-22">
          <mxGeometry width="50" height="50" relative="1" as="geometry">
            <mxPoint x="900" y="230" as="sourcePoint" />
            <mxPoint x="860" y="228" as="targetPoint" />
          </mxGeometry>
        </mxCell>
        <mxCell id="MxEG5UnicQZ02ljtJPla-39" value="nome" style="text;html=1;align=center;verticalAlign=middle;resizable=0;points=[];autosize=1;strokeColor=none;fillColor=none;" vertex="1" parent="1">
          <mxGeometry x="745" y="137.5" width="50" height="30" as="geometry" />
        </mxCell>
        <mxCell id="MxEG5UnicQZ02ljtJPla-41" value="gradazione" style="text;html=1;align=center;verticalAlign=middle;resizable=0;points=[];autosize=1;strokeColor=none;fillColor=none;" vertex="1" parent="1">
          <mxGeometry x="805" y="137.5" width="80" height="30" as="geometry" />
        </mxCell>
        <mxCell id="MxEG5UnicQZ02ljtJPla-43" value="prezzo" style="text;html=1;align=center;verticalAlign=middle;resizable=0;points=[];autosize=1;strokeColor=none;fillColor=none;" vertex="1" parent="1">
          <mxGeometry x="815" y="287.5" width="60" height="30" as="geometry" />
        </mxCell>
        <mxCell id="MxEG5UnicQZ02ljtJPla-53" value="capienza" style="text;html=1;align=center;verticalAlign=middle;resizable=0;points=[];autosize=1;strokeColor=none;fillColor=none;" vertex="1" parent="1">
          <mxGeometry x="665" y="137.5" width="70" height="30" as="geometry" />
        </mxCell>
        <mxCell id="MxEG5UnicQZ02ljtJPla-27" value="" style="shape=flexArrow;endArrow=classic;html=1;rounded=0;width=22;endSize=9.33;fillColor=#FFFFFF;exitX=0.5;exitY=1;exitDx=0;exitDy=0;strokeColor=#000000;" edge="1" parent="1">
          <mxGeometry width="50" height="50" relative="1" as="geometry">
            <mxPoint x="-460" y="229.05" as="sourcePoint" />
            <mxPoint x="-540" y="229.05" as="targetPoint" />
          </mxGeometry>
        </mxCell>
        <mxCell id="MxEG5UnicQZ02ljtJPla-35" style="edgeStyle=orthogonalEdgeStyle;rounded=0;orthogonalLoop=1;jettySize=auto;html=1;exitX=0;exitY=0.5;exitDx=0;exitDy=0;" edge="1" parent="1" source="MxEG5UnicQZ02ljtJPla-29">
          <mxGeometry relative="1" as="geometry">
            <mxPoint x="-460" y="230" as="targetPoint" />
            <mxPoint x="-100" y="270" as="sourcePoint" />
          </mxGeometry>
        </mxCell>
        <mxCell id="kKgeo0slFkC3Tw3-10c0-6" style="edgeStyle=orthogonalEdgeStyle;rounded=0;orthogonalLoop=1;jettySize=auto;html=1;exitX=0.75;exitY=1;exitDx=0;exitDy=0;endArrow=oval;endFill=0;endSize=6;entryX=0.4;entryY=-0.05;entryDx=0;entryDy=0;entryPerimeter=0;" edge="1" parent="1" source="MxEG5UnicQZ02ljtJPla-5" target="MxEG5UnicQZ02ljtJPla-9">
          <mxGeometry relative="1" as="geometry">
            <mxPoint x="-570" y="277.5" as="targetPoint" />
          </mxGeometry>
        </mxCell>
        <mxCell id="XyFGsEq6q9qQeSa8pEMJ-1" style="rounded=0;orthogonalLoop=1;jettySize=auto;html=1;exitX=1;exitY=1;exitDx=0;exitDy=0;endArrow=oval;endFill=0;" edge="1" parent="1" source="MxEG5UnicQZ02ljtJPla-5">
          <mxGeometry relative="1" as="geometry">
            <mxPoint x="-520" y="277.5" as="targetPoint" />
          </mxGeometry>
        </mxCell>
        <mxCell id="FQHvEriQ-MTezVk4LE77-1" style="rounded=0;orthogonalLoop=1;jettySize=auto;html=1;exitX=0.25;exitY=1;exitDx=0;exitDy=0;entryX=0.771;entryY=-0.067;entryDx=0;entryDy=0;entryPerimeter=0;endArrow=oval;endFill=0;" edge="1" parent="1" source="MxEG5UnicQZ02ljtJPla-5" target="MxEG5UnicQZ02ljtJPla-17">
          <mxGeometry relative="1" as="geometry" />
        </mxCell>
        <mxCell id="FQHvEriQ-MTezVk4LE77-2" style="rounded=0;orthogonalLoop=1;jettySize=auto;html=1;exitX=0;exitY=0;exitDx=0;exitDy=0;entryX=1.06;entryY=0.767;entryDx=0;entryDy=0;entryPerimeter=0;endArrow=oval;endFill=1;" edge="1" parent="1" source="MxEG5UnicQZ02ljtJPla-5" target="MxEG5UnicQZ02ljtJPla-15">
          <mxGeometry relative="1" as="geometry" />
        </mxCell>
        <mxCell id="MxEG5UnicQZ02ljtJPla-5" value="Utente" style="whiteSpace=wrap;html=1;align=center;direction=east;rotation=-360;" vertex="1" parent="1">
          <mxGeometry x="-640" y="207.5" width="100" height="40" as="geometry" />
        </mxCell>
        <mxCell id="MxEG5UnicQZ02ljtJPla-9" value="nome" style="text;html=1;align=center;verticalAlign=middle;resizable=0;points=[];autosize=1;strokeColor=none;fillColor=none;rotation=-360;" vertex="1" parent="1">
          <mxGeometry x="-590" y="287.5" width="50" height="30" as="geometry" />
        </mxCell>
        <mxCell id="MxEG5UnicQZ02ljtJPla-11" value="cognome" style="text;html=1;align=center;verticalAlign=middle;resizable=0;points=[];autosize=1;strokeColor=none;fillColor=none;rotation=-360;" vertex="1" parent="1">
          <mxGeometry x="-750" y="217.5" width="70" height="30" as="geometry" />
        </mxCell>
        <mxCell id="MxEG5UnicQZ02ljtJPla-26" style="rounded=0;orthogonalLoop=1;jettySize=auto;html=1;exitX=0;exitY=0.75;exitDx=0;exitDy=0;endArrow=oval;endFill=0;entryX=1;entryY=0.667;entryDx=0;entryDy=0;entryPerimeter=0;" edge="1" parent="1" source="MxEG5UnicQZ02ljtJPla-5" target="MxEG5UnicQZ02ljtJPla-11">
          <mxGeometry relative="1" as="geometry">
            <mxPoint x="-680" y="247.5" as="targetPoint" />
          </mxGeometry>
        </mxCell>
        <mxCell id="kKgeo0slFkC3Tw3-10c0-13" style="edgeStyle=none;rounded=0;orthogonalLoop=1;jettySize=auto;html=1;exitX=0.5;exitY=0;exitDx=0;exitDy=0;endArrow=oval;endFill=0;endSize=6;entryX=0.556;entryY=1.117;entryDx=0;entryDy=0;entryPerimeter=0;" edge="1" parent="1" source="MxEG5UnicQZ02ljtJPla-29" target="kKgeo0slFkC3Tw3-10c0-14">
          <mxGeometry relative="1" as="geometry">
            <mxPoint x="-210" y="290" as="targetPoint" />
          </mxGeometry>
        </mxCell>
        <mxCell id="kKgeo0slFkC3Tw3-10c0-14" value="Indirizzo(1,N)" style="text;html=1;align=center;verticalAlign=middle;resizable=0;points=[];autosize=1;strokeColor=none;fillColor=none;" vertex="1" parent="1">
          <mxGeometry x="-310" y="130" width="90" height="30" as="geometry" />
        </mxCell>
        <mxCell id="kKgeo0slFkC3Tw3-10c0-26" value="codice" style="text;html=1;align=center;verticalAlign=middle;resizable=0;points=[];autosize=1;strokeColor=none;fillColor=none;" vertex="1" parent="1">
          <mxGeometry x="274" y="150" width="60" height="30" as="geometry" />
        </mxCell>
        <mxCell id="kKgeo0slFkC3Tw3-10c0-31" value="ind_spedizione" style="text;html=1;align=center;verticalAlign=middle;resizable=0;points=[];autosize=1;strokeColor=none;fillColor=none;" vertex="1" parent="1">
          <mxGeometry x="324" y="150" width="100" height="30" as="geometry" />
        </mxCell>
        <mxCell id="kKgeo0slFkC3Tw3-10c0-32" value="Aliquota_IVA" style="text;html=1;align=center;verticalAlign=middle;resizable=0;points=[];autosize=1;strokeColor=none;fillColor=none;" vertex="1" parent="1">
          <mxGeometry x="314" y="280" width="90" height="30" as="geometry" />
        </mxCell>
        <mxCell id="kKgeo0slFkC3Tw3-10c0-33" value="prezzo" style="text;html=1;align=center;verticalAlign=middle;resizable=0;points=[];autosize=1;strokeColor=none;fillColor=none;" vertex="1" parent="1">
          <mxGeometry x="264" y="280" width="60" height="30" as="geometry" />
        </mxCell>
        <mxCell id="kKgeo0slFkC3Tw3-10c0-34" value="quantità" style="text;html=1;align=center;verticalAlign=middle;resizable=0;points=[];autosize=1;strokeColor=none;fillColor=none;" vertex="1" parent="1">
          <mxGeometry x="515" y="130" width="70" height="30" as="geometry" />
        </mxCell>
        <mxCell id="XyFGsEq6q9qQeSa8pEMJ-2" value="data_nascita" style="text;html=1;align=center;verticalAlign=middle;resizable=0;points=[];autosize=1;strokeColor=none;fillColor=none;" vertex="1" parent="1">
          <mxGeometry x="-530" y="280" width="90" height="30" as="geometry" />
        </mxCell>
        <mxCell id="mo-22U2Wwn1jeFS1FAg1-2" style="edgeStyle=orthogonalEdgeStyle;rounded=0;orthogonalLoop=1;jettySize=auto;html=1;exitX=1;exitY=0.5;exitDx=0;exitDy=0;entryX=0;entryY=0.5;entryDx=0;entryDy=0;endArrow=none;endFill=0;" edge="1" parent="1" source="mo-22U2Wwn1jeFS1FAg1-1" target="MxEG5UnicQZ02ljtJPla-21">
          <mxGeometry relative="1" as="geometry" />
        </mxCell>
        <mxCell id="mo-22U2Wwn1jeFS1FAg1-3" style="edgeStyle=orthogonalEdgeStyle;rounded=0;orthogonalLoop=1;jettySize=auto;html=1;exitX=0;exitY=0.5;exitDx=0;exitDy=0;entryX=1;entryY=0.5;entryDx=0;entryDy=0;endArrow=none;endFill=0;" edge="1" parent="1" source="mo-22U2Wwn1jeFS1FAg1-1" target="MxEG5UnicQZ02ljtJPla-29">
          <mxGeometry relative="1" as="geometry" />
        </mxCell>
        <mxCell id="mo-22U2Wwn1jeFS1FAg1-20" style="edgeStyle=orthogonalEdgeStyle;rounded=0;orthogonalLoop=1;jettySize=auto;html=1;exitX=0.5;exitY=0;exitDx=0;exitDy=0;endArrow=oval;endFill=0;" edge="1" parent="1" source="mo-22U2Wwn1jeFS1FAg1-1">
          <mxGeometry relative="1" as="geometry">
            <mxPoint x="45" y="160" as="targetPoint" />
          </mxGeometry>
        </mxCell>
        <mxCell id="mo-22U2Wwn1jeFS1FAg1-1" value="Effetuazione" style="shape=rhombus;perimeter=rhombusPerimeter;whiteSpace=wrap;html=1;align=center;" vertex="1" parent="1">
          <mxGeometry x="-15" y="200" width="120" height="60" as="geometry" />
        </mxCell>
        <mxCell id="mo-22U2Wwn1jeFS1FAg1-4" value="&lt;font&gt;N&lt;/font&gt;" style="text;html=1;align=center;verticalAlign=middle;resizable=0;points=[];autosize=1;strokeColor=none;fillColor=none;fontColor=#FF3333;" vertex="1" parent="1">
          <mxGeometry x="110" y="190" width="30" height="30" as="geometry" />
        </mxCell>
        <mxCell id="mo-22U2Wwn1jeFS1FAg1-5" value="&lt;font color=&quot;#ff3333&quot;&gt;1&lt;/font&gt;" style="text;html=1;align=center;verticalAlign=middle;resizable=0;points=[];autosize=1;strokeColor=none;fillColor=none;" vertex="1" parent="1">
          <mxGeometry x="-30" y="190" width="30" height="30" as="geometry" />
        </mxCell>
        <mxCell id="mo-22U2Wwn1jeFS1FAg1-6" value="(0,N)" style="text;html=1;align=center;verticalAlign=middle;resizable=0;points=[];autosize=1;strokeColor=none;fillColor=none;" vertex="1" parent="1">
          <mxGeometry x="-160" y="190" width="50" height="30" as="geometry" />
        </mxCell>
        <mxCell id="mo-22U2Wwn1jeFS1FAg1-7" value="(1,1)" style="text;html=1;align=center;verticalAlign=middle;resizable=0;points=[];autosize=1;strokeColor=none;fillColor=none;" vertex="1" parent="1">
          <mxGeometry x="205" y="195" width="50" height="30" as="geometry" />
        </mxCell>
        <mxCell id="mo-22U2Wwn1jeFS1FAg1-9" style="rounded=0;orthogonalLoop=1;jettySize=auto;html=1;exitX=1;exitY=0.5;exitDx=0;exitDy=0;entryX=0;entryY=0.5;entryDx=0;entryDy=0;edgeStyle=orthogonalEdgeStyle;endArrow=none;endFill=0;" edge="1" parent="1" source="mo-22U2Wwn1jeFS1FAg1-8" target="MxEG5UnicQZ02ljtJPla-22">
          <mxGeometry relative="1" as="geometry" />
        </mxCell>
        <mxCell id="mo-22U2Wwn1jeFS1FAg1-10" style="edgeStyle=orthogonalEdgeStyle;rounded=0;orthogonalLoop=1;jettySize=auto;html=1;exitX=0;exitY=0.5;exitDx=0;exitDy=0;entryX=1;entryY=0.5;entryDx=0;entryDy=0;endArrow=none;endFill=0;" edge="1" parent="1" source="mo-22U2Wwn1jeFS1FAg1-8" target="MxEG5UnicQZ02ljtJPla-21">
          <mxGeometry relative="1" as="geometry" />
        </mxCell>
        <mxCell id="mo-22U2Wwn1jeFS1FAg1-8" value="Inclusione" style="shape=rhombus;perimeter=rhombusPerimeter;whiteSpace=wrap;html=1;align=center;" vertex="1" parent="1">
          <mxGeometry x="490" y="200" width="120" height="60" as="geometry" />
        </mxCell>
        <mxCell id="mo-22U2Wwn1jeFS1FAg1-11" value="&lt;font color=&quot;#ff3333&quot;&gt;N&lt;/font&gt;" style="text;html=1;align=center;verticalAlign=middle;resizable=0;points=[];autosize=1;strokeColor=none;fillColor=none;" vertex="1" parent="1">
          <mxGeometry x="600" y="185" width="30" height="30" as="geometry" />
        </mxCell>
        <mxCell id="mo-22U2Wwn1jeFS1FAg1-12" value="&lt;font color=&quot;#ff3333&quot;&gt;M&lt;/font&gt;" style="text;html=1;align=center;verticalAlign=middle;resizable=0;points=[];autosize=1;strokeColor=none;fillColor=none;" vertex="1" parent="1">
          <mxGeometry x="470" y="185" width="30" height="30" as="geometry" />
        </mxCell>
        <mxCell id="mo-22U2Wwn1jeFS1FAg1-13" value="(0,N)" style="text;html=1;align=center;verticalAlign=middle;resizable=0;points=[];autosize=1;strokeColor=none;fillColor=none;" vertex="1" parent="1">
          <mxGeometry x="660" y="195" width="50" height="30" as="geometry" />
        </mxCell>
        <mxCell id="mo-22U2Wwn1jeFS1FAg1-14" value="(1,N)" style="text;html=1;align=center;verticalAlign=middle;resizable=0;points=[];autosize=1;strokeColor=none;fillColor=none;" vertex="1" parent="1">
          <mxGeometry x="405" y="195" width="50" height="30" as="geometry" />
        </mxCell>
        <mxCell id="mo-22U2Wwn1jeFS1FAg1-16" style="edgeStyle=orthogonalEdgeStyle;rounded=0;orthogonalLoop=1;jettySize=auto;html=1;exitX=0.75;exitY=1;exitDx=0;exitDy=0;endArrow=oval;endFill=1;" edge="1" parent="1" source="mo-22U2Wwn1jeFS1FAg1-15">
          <mxGeometry relative="1" as="geometry">
            <mxPoint x="349" y="520" as="targetPoint" />
          </mxGeometry>
        </mxCell>
        <mxCell id="mo-22U2Wwn1jeFS1FAg1-22" style="edgeStyle=orthogonalEdgeStyle;rounded=0;orthogonalLoop=1;jettySize=auto;html=1;exitX=0.25;exitY=1;exitDx=0;exitDy=0;endArrow=oval;endFill=0;" edge="1" parent="1" source="mo-22U2Wwn1jeFS1FAg1-15">
          <mxGeometry relative="1" as="geometry">
            <mxPoint x="299" y="520" as="targetPoint" />
          </mxGeometry>
        </mxCell>
        <mxCell id="mo-22U2Wwn1jeFS1FAg1-35" style="edgeStyle=orthogonalEdgeStyle;rounded=0;orthogonalLoop=1;jettySize=auto;html=1;exitX=1;exitY=0.5;exitDx=0;exitDy=0;entryX=0;entryY=0.5;entryDx=0;entryDy=0;endArrow=none;endFill=0;" edge="1" parent="1" source="mo-22U2Wwn1jeFS1FAg1-15" target="mo-22U2Wwn1jeFS1FAg1-34">
          <mxGeometry relative="1" as="geometry" />
        </mxCell>
        <mxCell id="mo-22U2Wwn1jeFS1FAg1-15" value="Recensione" style="whiteSpace=wrap;html=1;align=center;" vertex="1" parent="1">
          <mxGeometry x="274" y="440" width="100" height="40" as="geometry" />
        </mxCell>
        <mxCell id="mo-22U2Wwn1jeFS1FAg1-17" value="id" style="text;html=1;align=center;verticalAlign=middle;resizable=0;points=[];autosize=1;strokeColor=none;fillColor=none;" vertex="1" parent="1">
          <mxGeometry x="334" y="520" width="30" height="30" as="geometry" />
        </mxCell>
        <mxCell id="mo-22U2Wwn1jeFS1FAg1-21" value="data_effetuazione" style="text;html=1;align=center;verticalAlign=middle;resizable=0;points=[];autosize=1;strokeColor=none;fillColor=none;" vertex="1" parent="1">
          <mxGeometry x="-15" y="130" width="120" height="30" as="geometry" />
        </mxCell>
        <mxCell id="mo-22U2Wwn1jeFS1FAg1-23" value="valutazione" style="text;html=1;align=center;verticalAlign=middle;resizable=0;points=[];autosize=1;strokeColor=none;fillColor=none;" vertex="1" parent="1">
          <mxGeometry x="255" y="520" width="80" height="30" as="geometry" />
        </mxCell>
        <mxCell id="mo-22U2Wwn1jeFS1FAg1-27" style="edgeStyle=orthogonalEdgeStyle;rounded=0;orthogonalLoop=1;jettySize=auto;html=1;exitX=1;exitY=0.5;exitDx=0;exitDy=0;entryX=0;entryY=0.5;entryDx=0;entryDy=0;endArrow=none;endFill=0;" edge="1" parent="1" source="mo-22U2Wwn1jeFS1FAg1-24" target="mo-22U2Wwn1jeFS1FAg1-15">
          <mxGeometry relative="1" as="geometry" />
        </mxCell>
        <mxCell id="mo-22U2Wwn1jeFS1FAg1-28" style="rounded=0;orthogonalLoop=1;jettySize=auto;html=1;exitX=0;exitY=0.5;exitDx=0;exitDy=0;entryX=0.5;entryY=1;entryDx=0;entryDy=0;endArrow=none;endFill=0;" edge="1" parent="1" source="mo-22U2Wwn1jeFS1FAg1-24" target="MxEG5UnicQZ02ljtJPla-29">
          <mxGeometry relative="1" as="geometry">
            <Array as="points">
              <mxPoint x="-260" y="460" />
            </Array>
          </mxGeometry>
        </mxCell>
        <mxCell id="mo-22U2Wwn1jeFS1FAg1-24" value="Rilascia" style="shape=rhombus;perimeter=rhombusPerimeter;whiteSpace=wrap;html=1;align=center;" vertex="1" parent="1">
          <mxGeometry x="-20" y="430" width="120" height="60" as="geometry" />
        </mxCell>
        <mxCell id="mo-22U2Wwn1jeFS1FAg1-29" value="&lt;font color=&quot;#ff3333&quot;&gt;N&lt;/font&gt;" style="text;html=1;align=center;verticalAlign=middle;resizable=0;points=[];autosize=1;strokeColor=none;fillColor=none;" vertex="1" parent="1">
          <mxGeometry x="140" y="420" width="30" height="30" as="geometry" />
        </mxCell>
        <mxCell id="mo-22U2Wwn1jeFS1FAg1-30" value="&lt;font color=&quot;#ff3333&quot;&gt;1&lt;/font&gt;" style="text;html=1;align=center;verticalAlign=middle;resizable=0;points=[];autosize=1;strokeColor=none;fillColor=none;" vertex="1" parent="1">
          <mxGeometry x="-100" y="420" width="30" height="30" as="geometry" />
        </mxCell>
        <mxCell id="mo-22U2Wwn1jeFS1FAg1-31" value="(0,N)" style="text;html=1;align=center;verticalAlign=middle;resizable=0;points=[];autosize=1;strokeColor=none;fillColor=none;rotation=0;" vertex="1" parent="1">
          <mxGeometry x="-220" y="425" width="50" height="30" as="geometry" />
        </mxCell>
        <mxCell id="mo-22U2Wwn1jeFS1FAg1-32" value="(1,1)" style="text;html=1;align=center;verticalAlign=middle;resizable=0;points=[];autosize=1;strokeColor=none;fillColor=none;" vertex="1" parent="1">
          <mxGeometry x="215" y="425" width="50" height="30" as="geometry" />
        </mxCell>
        <mxCell id="mo-22U2Wwn1jeFS1FAg1-33" value="" style="endArrow=oval;html=1;rounded=0;endFill=1;" edge="1" parent="1">
          <mxGeometry width="50" height="50" relative="1" as="geometry">
            <mxPoint x="264" y="485" as="sourcePoint" />
            <mxPoint x="264" y="435" as="targetPoint" />
          </mxGeometry>
        </mxCell>
        <mxCell id="mo-22U2Wwn1jeFS1FAg1-36" style="edgeStyle=orthogonalEdgeStyle;rounded=0;orthogonalLoop=1;jettySize=auto;html=1;exitX=1;exitY=0.5;exitDx=0;exitDy=0;entryX=0.5;entryY=1;entryDx=0;entryDy=0;endArrow=none;endFill=0;" edge="1" parent="1" source="mo-22U2Wwn1jeFS1FAg1-34" target="MxEG5UnicQZ02ljtJPla-22">
          <mxGeometry relative="1" as="geometry">
            <Array as="points">
              <mxPoint x="800" y="460" />
              <mxPoint x="800" y="250" />
            </Array>
          </mxGeometry>
        </mxCell>
        <mxCell id="mo-22U2Wwn1jeFS1FAg1-34" value="Riferimento" style="shape=rhombus;perimeter=rhombusPerimeter;whiteSpace=wrap;html=1;align=center;" vertex="1" parent="1">
          <mxGeometry x="540" y="430" width="120" height="60" as="geometry" />
        </mxCell>
        <mxCell id="mo-22U2Wwn1jeFS1FAg1-37" value="&lt;font color=&quot;#ff3333&quot;&gt;1&lt;/font&gt;" style="text;html=1;align=center;verticalAlign=middle;resizable=0;points=[];autosize=1;strokeColor=none;fillColor=none;" vertex="1" parent="1">
          <mxGeometry x="670" y="425" width="30" height="30" as="geometry" />
        </mxCell>
        <mxCell id="mo-22U2Wwn1jeFS1FAg1-38" value="&lt;font color=&quot;#ff3333&quot;&gt;N&lt;/font&gt;" style="text;html=1;align=center;verticalAlign=middle;resizable=0;points=[];autosize=1;strokeColor=none;fillColor=none;" vertex="1" parent="1">
          <mxGeometry x="505" y="425" width="30" height="30" as="geometry" />
        </mxCell>
        <mxCell id="mo-22U2Wwn1jeFS1FAg1-39" value="(1,1)" style="text;html=1;align=center;verticalAlign=middle;resizable=0;points=[];autosize=1;strokeColor=none;fillColor=none;" vertex="1" parent="1">
          <mxGeometry x="400" y="425" width="50" height="30" as="geometry" />
        </mxCell>
        <mxCell id="mo-22U2Wwn1jeFS1FAg1-40" value="(0,N)" style="text;html=1;align=center;verticalAlign=middle;resizable=0;points=[];autosize=1;strokeColor=none;fillColor=none;" vertex="1" parent="1">
          <mxGeometry x="745" y="355" width="50" height="30" as="geometry" />
        </mxCell>
        <mxCell id="f11nRXns6FTgNTCt6T9g-2" value="descrizione" style="text;html=1;align=center;verticalAlign=middle;resizable=0;points=[];autosize=1;strokeColor=none;fillColor=none;" vertex="1" parent="1">
          <mxGeometry x="640" y="275" width="80" height="30" as="geometry" />
        </mxCell>
        <mxCell id="f11nRXns6FTgNTCt6T9g-4" value="pagamento(1,N)" style="text;html=1;align=center;verticalAlign=middle;resizable=0;points=[];autosize=1;strokeColor=none;fillColor=none;" vertex="1" parent="1">
          <mxGeometry x="-230" y="280" width="110" height="30" as="geometry" />
        </mxCell>
        <mxCell id="f11nRXns6FTgNTCt6T9g-6" value="p,e" style="text;html=1;align=center;verticalAlign=middle;resizable=0;points=[];autosize=1;strokeColor=none;fillColor=none;" vertex="1" parent="1">
          <mxGeometry x="-500" y="185" width="40" height="30" as="geometry" />
        </mxCell>
        <mxCell id="f11nRXns6FTgNTCt6T9g-7" value="t,e" style="text;html=1;align=center;verticalAlign=middle;resizable=0;points=[];autosize=1;strokeColor=none;fillColor=none;" vertex="1" parent="1">
          <mxGeometry x="860" y="175" width="40" height="30" as="geometry" />
        </mxCell>
        <mxCell id="MxEG5UnicQZ02ljtJPla-17" value="password" style="text;html=1;align=center;verticalAlign=middle;resizable=0;points=[];autosize=1;strokeColor=none;fillColor=none;rotation=-360;" vertex="1" parent="1">
          <mxGeometry x="-670" y="287.5" width="70" height="30" as="geometry" />
        </mxCell>
        <mxCell id="MxEG5UnicQZ02ljtJPla-15" value="email" style="text;html=1;align=center;verticalAlign=middle;resizable=0;points=[];autosize=1;strokeColor=none;fillColor=none;rotation=-360;" vertex="1" parent="1">
          <mxGeometry x="-735" y="167.5" width="50" height="30" as="geometry" />
        </mxCell>
        <mxCell id="f11nRXns6FTgNTCt6T9g-3" style="rounded=0;orthogonalLoop=1;jettySize=auto;html=1;endArrow=oval;endFill=0;exitX=1;exitY=1;exitDx=0;exitDy=0;" edge="1" parent="1" source="MxEG5UnicQZ02ljtJPla-29">
          <mxGeometry relative="1" as="geometry">
            <mxPoint x="-190" y="280" as="targetPoint" />
            <mxPoint x="-390" y="110" as="sourcePoint" />
          </mxGeometry>
        </mxCell>
        <mxCell id="MxEG5UnicQZ02ljtJPla-29" value="Iscritto" style="whiteSpace=wrap;html=1;align=center;direction=east;rotation=-360;" vertex="1" parent="1">
          <mxGeometry x="-310" y="210" width="100" height="40" as="geometry" />
        </mxCell>
        <mxCell id="FQHvEriQ-MTezVk4LE77-3" value="" style="endArrow=oval;html=1;rounded=0;endFill=1;" edge="1" parent="1">
          <mxGeometry width="50" height="50" relative="1" as="geometry">
            <mxPoint x="390" y="490" as="sourcePoint" />
            <mxPoint x="390" y="440" as="targetPoint" />
          </mxGeometry>
        </mxCell>
        <mxCell id="96hjUAJHOVGi4jxrKTjh-2" value="img" style="text;html=1;align=center;verticalAlign=middle;resizable=0;points=[];autosize=1;strokeColor=none;fillColor=none;" vertex="1" parent="1">
          <mxGeometry x="745" y="300" width="40" height="30" as="geometry" />
        </mxCell>
        <mxCell id="vbW27eBK8uAAlFPrjN2D-3" style="edgeStyle=orthogonalEdgeStyle;rounded=0;orthogonalLoop=1;jettySize=auto;html=1;exitX=0;exitY=0.5;exitDx=0;exitDy=0;" edge="1" parent="1" source="vbW27eBK8uAAlFPrjN2D-2">
          <mxGeometry relative="1" as="geometry">
            <mxPoint x="900" y="235" as="targetPoint" />
          </mxGeometry>
        </mxCell>
        <mxCell id="vbW27eBK8uAAlFPrjN2D-2" value="Liquore" style="whiteSpace=wrap;html=1;align=center;" vertex="1" parent="1">
          <mxGeometry x="920" y="215" width="100" height="40" as="geometry" />
        </mxCell>
      </root>
    </mxGraphModel>
  </diagram>
</mxfile>
